<mxfile host="app.diagrams.net" modified="2022-10-26T09:53:12.135Z" agent="5.0 (Windows NT 10.0; Win64; x64) AppleWebKit/537.36 (KHTML, like Gecko) Chrome/106.0.0.0 Safari/537.36 Edg/106.0.1370.52" etag="p9wvjMCTnoa6TEZm0X6s" version="20.5.1" type="github">
  <diagram id="6-Q-cTFYqkNEz7RnKarI" name="第 1 页">
    <mxGraphModel dx="1483" dy="826" grid="1" gridSize="10" guides="1" tooltips="1" connect="1" arrows="1" fold="1" page="1" pageScale="1" pageWidth="827" pageHeight="1169" math="0" shadow="0">
      <root>
        <mxCell id="0" />
        <mxCell id="1" parent="0" />
        <mxCell id="AcqyMiPbvdHm6xkz5a-X-4" style="edgeStyle=orthogonalEdgeStyle;rounded=0;orthogonalLoop=1;jettySize=auto;html=1;exitX=1;exitY=0.5;exitDx=0;exitDy=0;fontSize=25;" edge="1" parent="1" source="AcqyMiPbvdHm6xkz5a-X-1" target="AcqyMiPbvdHm6xkz5a-X-2">
          <mxGeometry relative="1" as="geometry" />
        </mxCell>
        <mxCell id="AcqyMiPbvdHm6xkz5a-X-96" value="a-z,$,_" style="edgeLabel;html=1;align=center;verticalAlign=middle;resizable=0;points=[];fontSize=25;" vertex="1" connectable="0" parent="AcqyMiPbvdHm6xkz5a-X-4">
          <mxGeometry x="-0.1565" y="-2" relative="1" as="geometry">
            <mxPoint as="offset" />
          </mxGeometry>
        </mxCell>
        <mxCell id="AcqyMiPbvdHm6xkz5a-X-5" style="edgeStyle=orthogonalEdgeStyle;rounded=0;orthogonalLoop=1;jettySize=auto;html=1;exitX=0.5;exitY=1;exitDx=0;exitDy=0;entryX=0;entryY=0.5;entryDx=0;entryDy=0;fontSize=25;" edge="1" parent="1" source="AcqyMiPbvdHm6xkz5a-X-1" target="AcqyMiPbvdHm6xkz5a-X-3">
          <mxGeometry relative="1" as="geometry">
            <Array as="points">
              <mxPoint x="180" y="410" />
            </Array>
          </mxGeometry>
        </mxCell>
        <mxCell id="AcqyMiPbvdHm6xkz5a-X-97" value="0-9" style="edgeLabel;html=1;align=center;verticalAlign=middle;resizable=0;points=[];fontSize=25;" vertex="1" connectable="0" parent="AcqyMiPbvdHm6xkz5a-X-5">
          <mxGeometry x="0.3895" y="3" relative="1" as="geometry">
            <mxPoint as="offset" />
          </mxGeometry>
        </mxCell>
        <mxCell id="AcqyMiPbvdHm6xkz5a-X-19" style="edgeStyle=orthogonalEdgeStyle;rounded=0;orthogonalLoop=1;jettySize=auto;html=1;exitX=0.5;exitY=1;exitDx=0;exitDy=0;entryX=0;entryY=0.5;entryDx=0;entryDy=0;fontSize=25;" edge="1" parent="1" source="AcqyMiPbvdHm6xkz5a-X-1" target="AcqyMiPbvdHm6xkz5a-X-6">
          <mxGeometry relative="1" as="geometry" />
        </mxCell>
        <mxCell id="AcqyMiPbvdHm6xkz5a-X-100" value="11个单独字符" style="edgeLabel;html=1;align=center;verticalAlign=middle;resizable=0;points=[];fontSize=25;" vertex="1" connectable="0" parent="AcqyMiPbvdHm6xkz5a-X-19">
          <mxGeometry x="0.5459" y="-1" relative="1" as="geometry">
            <mxPoint as="offset" />
          </mxGeometry>
        </mxCell>
        <mxCell id="AcqyMiPbvdHm6xkz5a-X-20" style="edgeStyle=orthogonalEdgeStyle;rounded=0;orthogonalLoop=1;jettySize=auto;html=1;exitX=0.5;exitY=1;exitDx=0;exitDy=0;entryX=0;entryY=0.5;entryDx=0;entryDy=0;fontSize=25;" edge="1" parent="1" source="AcqyMiPbvdHm6xkz5a-X-1" target="AcqyMiPbvdHm6xkz5a-X-7">
          <mxGeometry relative="1" as="geometry" />
        </mxCell>
        <mxCell id="AcqyMiPbvdHm6xkz5a-X-102" value="/" style="edgeLabel;html=1;align=center;verticalAlign=middle;resizable=0;points=[];fontSize=25;" vertex="1" connectable="0" parent="AcqyMiPbvdHm6xkz5a-X-20">
          <mxGeometry x="0.5625" y="-5" relative="1" as="geometry">
            <mxPoint as="offset" />
          </mxGeometry>
        </mxCell>
        <mxCell id="AcqyMiPbvdHm6xkz5a-X-21" style="edgeStyle=orthogonalEdgeStyle;rounded=0;orthogonalLoop=1;jettySize=auto;html=1;exitX=0.5;exitY=1;exitDx=0;exitDy=0;entryX=0;entryY=0.5;entryDx=0;entryDy=0;fontSize=25;" edge="1" parent="1" source="AcqyMiPbvdHm6xkz5a-X-1" target="AcqyMiPbvdHm6xkz5a-X-8">
          <mxGeometry relative="1" as="geometry" />
        </mxCell>
        <mxCell id="AcqyMiPbvdHm6xkz5a-X-54" value="小数点" style="edgeLabel;html=1;align=center;verticalAlign=middle;resizable=0;points=[];fontSize=25;" vertex="1" connectable="0" parent="AcqyMiPbvdHm6xkz5a-X-21">
          <mxGeometry x="0.7706" y="1" relative="1" as="geometry">
            <mxPoint as="offset" />
          </mxGeometry>
        </mxCell>
        <mxCell id="AcqyMiPbvdHm6xkz5a-X-22" style="edgeStyle=orthogonalEdgeStyle;rounded=0;orthogonalLoop=1;jettySize=auto;html=1;exitX=0.5;exitY=1;exitDx=0;exitDy=0;entryX=0;entryY=0.5;entryDx=0;entryDy=0;fontSize=25;" edge="1" parent="1" source="AcqyMiPbvdHm6xkz5a-X-1" target="AcqyMiPbvdHm6xkz5a-X-9">
          <mxGeometry relative="1" as="geometry" />
        </mxCell>
        <mxCell id="AcqyMiPbvdHm6xkz5a-X-55" value="&amp;gt;" style="edgeLabel;html=1;align=center;verticalAlign=middle;resizable=0;points=[];fontSize=25;" vertex="1" connectable="0" parent="AcqyMiPbvdHm6xkz5a-X-22">
          <mxGeometry x="0.7909" y="3" relative="1" as="geometry">
            <mxPoint as="offset" />
          </mxGeometry>
        </mxCell>
        <mxCell id="AcqyMiPbvdHm6xkz5a-X-23" style="edgeStyle=orthogonalEdgeStyle;rounded=0;orthogonalLoop=1;jettySize=auto;html=1;exitX=0.5;exitY=1;exitDx=0;exitDy=0;entryX=0;entryY=0.5;entryDx=0;entryDy=0;fontSize=25;" edge="1" parent="1" source="AcqyMiPbvdHm6xkz5a-X-1" target="AcqyMiPbvdHm6xkz5a-X-10">
          <mxGeometry relative="1" as="geometry">
            <Array as="points">
              <mxPoint x="180" y="1642" />
            </Array>
          </mxGeometry>
        </mxCell>
        <mxCell id="AcqyMiPbvdHm6xkz5a-X-93" value="&amp;lt;" style="edgeLabel;html=1;align=center;verticalAlign=middle;resizable=0;points=[];fontSize=25;" vertex="1" connectable="0" parent="AcqyMiPbvdHm6xkz5a-X-23">
          <mxGeometry x="0.8537" y="4" relative="1" as="geometry">
            <mxPoint as="offset" />
          </mxGeometry>
        </mxCell>
        <mxCell id="AcqyMiPbvdHm6xkz5a-X-24" style="edgeStyle=orthogonalEdgeStyle;rounded=0;orthogonalLoop=1;jettySize=auto;html=1;exitX=0.5;exitY=1;exitDx=0;exitDy=0;entryX=0;entryY=0.5;entryDx=0;entryDy=0;fontSize=25;" edge="1" parent="1" source="AcqyMiPbvdHm6xkz5a-X-1" target="AcqyMiPbvdHm6xkz5a-X-11">
          <mxGeometry relative="1" as="geometry" />
        </mxCell>
        <mxCell id="AcqyMiPbvdHm6xkz5a-X-91" value="!" style="edgeLabel;html=1;align=center;verticalAlign=middle;resizable=0;points=[];fontSize=25;" vertex="1" connectable="0" parent="AcqyMiPbvdHm6xkz5a-X-24">
          <mxGeometry x="0.8706" y="2" relative="1" as="geometry">
            <mxPoint as="offset" />
          </mxGeometry>
        </mxCell>
        <mxCell id="AcqyMiPbvdHm6xkz5a-X-27" style="edgeStyle=orthogonalEdgeStyle;rounded=0;orthogonalLoop=1;jettySize=auto;html=1;exitX=0.5;exitY=1;exitDx=0;exitDy=0;entryX=0;entryY=0.5;entryDx=0;entryDy=0;fontSize=25;" edge="1" parent="1" source="AcqyMiPbvdHm6xkz5a-X-1" target="AcqyMiPbvdHm6xkz5a-X-12">
          <mxGeometry relative="1" as="geometry" />
        </mxCell>
        <mxCell id="AcqyMiPbvdHm6xkz5a-X-89" value="=" style="edgeLabel;html=1;align=center;verticalAlign=middle;resizable=0;points=[];fontSize=25;" vertex="1" connectable="0" parent="AcqyMiPbvdHm6xkz5a-X-27">
          <mxGeometry x="0.8835" y="1" relative="1" as="geometry">
            <mxPoint as="offset" />
          </mxGeometry>
        </mxCell>
        <mxCell id="AcqyMiPbvdHm6xkz5a-X-28" style="edgeStyle=orthogonalEdgeStyle;rounded=0;orthogonalLoop=1;jettySize=auto;html=1;exitX=0.5;exitY=1;exitDx=0;exitDy=0;entryX=0;entryY=0.5;entryDx=0;entryDy=0;fontSize=25;" edge="1" parent="1" source="AcqyMiPbvdHm6xkz5a-X-1" target="AcqyMiPbvdHm6xkz5a-X-14">
          <mxGeometry relative="1" as="geometry" />
        </mxCell>
        <mxCell id="AcqyMiPbvdHm6xkz5a-X-83" value="&amp;amp;" style="edgeLabel;html=1;align=center;verticalAlign=middle;resizable=0;points=[];fontSize=25;" vertex="1" connectable="0" parent="AcqyMiPbvdHm6xkz5a-X-28">
          <mxGeometry x="0.9138" y="3" relative="1" as="geometry">
            <mxPoint as="offset" />
          </mxGeometry>
        </mxCell>
        <mxCell id="AcqyMiPbvdHm6xkz5a-X-29" style="edgeStyle=orthogonalEdgeStyle;rounded=0;orthogonalLoop=1;jettySize=auto;html=1;exitX=0.5;exitY=1;exitDx=0;exitDy=0;entryX=0;entryY=0.5;entryDx=0;entryDy=0;fontSize=25;" edge="1" parent="1" source="AcqyMiPbvdHm6xkz5a-X-1" target="AcqyMiPbvdHm6xkz5a-X-13">
          <mxGeometry relative="1" as="geometry" />
        </mxCell>
        <mxCell id="AcqyMiPbvdHm6xkz5a-X-86" value="|" style="edgeLabel;html=1;align=center;verticalAlign=middle;resizable=0;points=[];fontSize=25;" vertex="1" connectable="0" parent="AcqyMiPbvdHm6xkz5a-X-29">
          <mxGeometry x="0.9118" y="3" relative="1" as="geometry">
            <mxPoint as="offset" />
          </mxGeometry>
        </mxCell>
        <mxCell id="AcqyMiPbvdHm6xkz5a-X-31" style="edgeStyle=orthogonalEdgeStyle;rounded=0;orthogonalLoop=1;jettySize=auto;html=1;exitX=0.5;exitY=1;exitDx=0;exitDy=0;entryX=0;entryY=0.5;entryDx=0;entryDy=0;fontSize=25;" edge="1" parent="1" source="AcqyMiPbvdHm6xkz5a-X-1" target="AcqyMiPbvdHm6xkz5a-X-16">
          <mxGeometry relative="1" as="geometry" />
        </mxCell>
        <mxCell id="AcqyMiPbvdHm6xkz5a-X-82" value="\n" style="edgeLabel;html=1;align=center;verticalAlign=middle;resizable=0;points=[];fontSize=25;" vertex="1" connectable="0" parent="AcqyMiPbvdHm6xkz5a-X-31">
          <mxGeometry x="0.9162" y="-1" relative="1" as="geometry">
            <mxPoint x="1" as="offset" />
          </mxGeometry>
        </mxCell>
        <mxCell id="AcqyMiPbvdHm6xkz5a-X-32" style="edgeStyle=orthogonalEdgeStyle;rounded=0;orthogonalLoop=1;jettySize=auto;html=1;exitX=0.5;exitY=1;exitDx=0;exitDy=0;entryX=0;entryY=0.5;entryDx=0;entryDy=0;fontSize=25;" edge="1" parent="1" source="AcqyMiPbvdHm6xkz5a-X-1" target="AcqyMiPbvdHm6xkz5a-X-17">
          <mxGeometry relative="1" as="geometry" />
        </mxCell>
        <mxCell id="AcqyMiPbvdHm6xkz5a-X-81" value="*" style="edgeLabel;html=1;align=center;verticalAlign=middle;resizable=0;points=[];fontSize=25;" vertex="1" connectable="0" parent="AcqyMiPbvdHm6xkz5a-X-32">
          <mxGeometry x="0.9247" y="3" relative="1" as="geometry">
            <mxPoint x="1" as="offset" />
          </mxGeometry>
        </mxCell>
        <mxCell id="AcqyMiPbvdHm6xkz5a-X-33" style="edgeStyle=orthogonalEdgeStyle;rounded=0;orthogonalLoop=1;jettySize=auto;html=1;exitX=0.5;exitY=1;exitDx=0;exitDy=0;entryX=0;entryY=0.5;entryDx=0;entryDy=0;fontSize=25;" edge="1" parent="1" source="AcqyMiPbvdHm6xkz5a-X-1" target="AcqyMiPbvdHm6xkz5a-X-18">
          <mxGeometry relative="1" as="geometry" />
        </mxCell>
        <mxCell id="AcqyMiPbvdHm6xkz5a-X-80" value="未定义字符" style="edgeLabel;html=1;align=center;verticalAlign=middle;resizable=0;points=[];fontSize=25;" vertex="1" connectable="0" parent="AcqyMiPbvdHm6xkz5a-X-33">
          <mxGeometry x="0.9298" y="7" relative="1" as="geometry">
            <mxPoint x="1" as="offset" />
          </mxGeometry>
        </mxCell>
        <mxCell id="AcqyMiPbvdHm6xkz5a-X-1" value="0" style="ellipse;whiteSpace=wrap;html=1;aspect=fixed;fontSize=25;" vertex="1" parent="1">
          <mxGeometry x="140" y="220" width="80" height="80" as="geometry" />
        </mxCell>
        <mxCell id="AcqyMiPbvdHm6xkz5a-X-2" value="1" style="ellipse;whiteSpace=wrap;html=1;aspect=fixed;fontSize=25;" vertex="1" parent="1">
          <mxGeometry x="440" y="220" width="80" height="80" as="geometry" />
        </mxCell>
        <mxCell id="AcqyMiPbvdHm6xkz5a-X-36" style="edgeStyle=orthogonalEdgeStyle;rounded=0;orthogonalLoop=1;jettySize=auto;html=1;exitX=1;exitY=0.5;exitDx=0;exitDy=0;fontSize=25;" edge="1" parent="1" source="AcqyMiPbvdHm6xkz5a-X-3" target="AcqyMiPbvdHm6xkz5a-X-35">
          <mxGeometry relative="1" as="geometry">
            <Array as="points">
              <mxPoint x="600" y="410" />
              <mxPoint x="600" y="410" />
            </Array>
          </mxGeometry>
        </mxCell>
        <mxCell id="AcqyMiPbvdHm6xkz5a-X-98" value="小数点" style="edgeLabel;html=1;align=center;verticalAlign=middle;resizable=0;points=[];fontSize=25;" vertex="1" connectable="0" parent="AcqyMiPbvdHm6xkz5a-X-36">
          <mxGeometry x="-0.1737" y="2" relative="1" as="geometry">
            <mxPoint as="offset" />
          </mxGeometry>
        </mxCell>
        <mxCell id="AcqyMiPbvdHm6xkz5a-X-3" value="2" style="ellipse;whiteSpace=wrap;html=1;aspect=fixed;fontSize=25;" vertex="1" parent="1">
          <mxGeometry x="440" y="370" width="80" height="80" as="geometry" />
        </mxCell>
        <mxCell id="AcqyMiPbvdHm6xkz5a-X-6" value="4" style="ellipse;whiteSpace=wrap;html=1;aspect=fixed;fontSize=25;" vertex="1" parent="1">
          <mxGeometry x="440" y="510" width="80" height="80" as="geometry" />
        </mxCell>
        <mxCell id="AcqyMiPbvdHm6xkz5a-X-42" style="edgeStyle=orthogonalEdgeStyle;rounded=0;orthogonalLoop=1;jettySize=auto;html=1;exitX=1;exitY=0.5;exitDx=0;exitDy=0;fontSize=25;" edge="1" parent="1" source="AcqyMiPbvdHm6xkz5a-X-7" target="AcqyMiPbvdHm6xkz5a-X-39">
          <mxGeometry relative="1" as="geometry" />
        </mxCell>
        <mxCell id="AcqyMiPbvdHm6xkz5a-X-103" value="*" style="edgeLabel;html=1;align=center;verticalAlign=middle;resizable=0;points=[];fontSize=25;" vertex="1" connectable="0" parent="AcqyMiPbvdHm6xkz5a-X-42">
          <mxGeometry x="-0.264" y="4" relative="1" as="geometry">
            <mxPoint as="offset" />
          </mxGeometry>
        </mxCell>
        <mxCell id="AcqyMiPbvdHm6xkz5a-X-46" style="edgeStyle=orthogonalEdgeStyle;rounded=0;orthogonalLoop=1;jettySize=auto;html=1;exitX=0.5;exitY=1;exitDx=0;exitDy=0;entryX=0;entryY=0.5;entryDx=0;entryDy=0;fontSize=25;" edge="1" parent="1" source="AcqyMiPbvdHm6xkz5a-X-7" target="AcqyMiPbvdHm6xkz5a-X-45">
          <mxGeometry relative="1" as="geometry" />
        </mxCell>
        <mxCell id="AcqyMiPbvdHm6xkz5a-X-106" value="/" style="edgeLabel;html=1;align=center;verticalAlign=middle;resizable=0;points=[];fontSize=25;" vertex="1" connectable="0" parent="AcqyMiPbvdHm6xkz5a-X-46">
          <mxGeometry x="0.4745" y="-5" relative="1" as="geometry">
            <mxPoint as="offset" />
          </mxGeometry>
        </mxCell>
        <mxCell id="AcqyMiPbvdHm6xkz5a-X-48" style="edgeStyle=orthogonalEdgeStyle;rounded=0;orthogonalLoop=1;jettySize=auto;html=1;exitX=0.5;exitY=1;exitDx=0;exitDy=0;entryX=0;entryY=0.5;entryDx=0;entryDy=0;fontSize=25;" edge="1" parent="1" source="AcqyMiPbvdHm6xkz5a-X-7" target="AcqyMiPbvdHm6xkz5a-X-47">
          <mxGeometry relative="1" as="geometry" />
        </mxCell>
        <mxCell id="AcqyMiPbvdHm6xkz5a-X-108" value="其他" style="edgeLabel;html=1;align=center;verticalAlign=middle;resizable=0;points=[];fontSize=25;" vertex="1" connectable="0" parent="AcqyMiPbvdHm6xkz5a-X-48">
          <mxGeometry x="0.714" y="-6" relative="1" as="geometry">
            <mxPoint as="offset" />
          </mxGeometry>
        </mxCell>
        <mxCell id="AcqyMiPbvdHm6xkz5a-X-7" value="5" style="ellipse;whiteSpace=wrap;html=1;aspect=fixed;fontSize=25;" vertex="1" parent="1">
          <mxGeometry x="440" y="660" width="80" height="80" as="geometry" />
        </mxCell>
        <mxCell id="AcqyMiPbvdHm6xkz5a-X-8" value="12" style="ellipse;whiteSpace=wrap;html=1;aspect=fixed;fontSize=25;" vertex="1" parent="1">
          <mxGeometry x="440" y="1262" width="80" height="80" as="geometry" />
        </mxCell>
        <mxCell id="AcqyMiPbvdHm6xkz5a-X-57" style="edgeStyle=orthogonalEdgeStyle;rounded=0;orthogonalLoop=1;jettySize=auto;html=1;exitX=1;exitY=0.5;exitDx=0;exitDy=0;entryX=0;entryY=0.5;entryDx=0;entryDy=0;fontSize=25;" edge="1" parent="1" source="AcqyMiPbvdHm6xkz5a-X-9" target="AcqyMiPbvdHm6xkz5a-X-56">
          <mxGeometry relative="1" as="geometry" />
        </mxCell>
        <mxCell id="AcqyMiPbvdHm6xkz5a-X-60" value="=" style="edgeLabel;html=1;align=center;verticalAlign=middle;resizable=0;points=[];fontSize=25;" vertex="1" connectable="0" parent="AcqyMiPbvdHm6xkz5a-X-57">
          <mxGeometry x="-0.176" y="-3" relative="1" as="geometry">
            <mxPoint as="offset" />
          </mxGeometry>
        </mxCell>
        <mxCell id="AcqyMiPbvdHm6xkz5a-X-59" style="edgeStyle=orthogonalEdgeStyle;rounded=0;orthogonalLoop=1;jettySize=auto;html=1;exitX=0.5;exitY=1;exitDx=0;exitDy=0;entryX=-0.006;entryY=0.647;entryDx=0;entryDy=0;entryPerimeter=0;fontSize=25;" edge="1" parent="1" source="AcqyMiPbvdHm6xkz5a-X-9" target="AcqyMiPbvdHm6xkz5a-X-58">
          <mxGeometry relative="1" as="geometry">
            <Array as="points">
              <mxPoint x="480" y="1560" />
              <mxPoint x="720" y="1560" />
            </Array>
          </mxGeometry>
        </mxCell>
        <mxCell id="AcqyMiPbvdHm6xkz5a-X-61" value="&amp;gt;" style="edgeLabel;html=1;align=center;verticalAlign=middle;resizable=0;points=[];fontSize=25;" vertex="1" connectable="0" parent="AcqyMiPbvdHm6xkz5a-X-59">
          <mxGeometry x="0.3049" relative="1" as="geometry">
            <mxPoint as="offset" />
          </mxGeometry>
        </mxCell>
        <mxCell id="AcqyMiPbvdHm6xkz5a-X-9" value="13" style="ellipse;whiteSpace=wrap;html=1;aspect=fixed;fontSize=25;" vertex="1" parent="1">
          <mxGeometry x="440" y="1412" width="80" height="80" as="geometry" />
        </mxCell>
        <mxCell id="AcqyMiPbvdHm6xkz5a-X-68" style="edgeStyle=orthogonalEdgeStyle;rounded=0;orthogonalLoop=1;jettySize=auto;html=1;exitX=1;exitY=0.5;exitDx=0;exitDy=0;entryX=0;entryY=0.5;entryDx=0;entryDy=0;fontSize=25;" edge="1" parent="1" source="AcqyMiPbvdHm6xkz5a-X-10" target="AcqyMiPbvdHm6xkz5a-X-62">
          <mxGeometry relative="1" as="geometry" />
        </mxCell>
        <mxCell id="AcqyMiPbvdHm6xkz5a-X-94" value="=" style="edgeLabel;html=1;align=center;verticalAlign=middle;resizable=0;points=[];fontSize=25;" vertex="1" connectable="0" parent="AcqyMiPbvdHm6xkz5a-X-68">
          <mxGeometry x="-0.2151" y="-1" relative="1" as="geometry">
            <mxPoint as="offset" />
          </mxGeometry>
        </mxCell>
        <mxCell id="AcqyMiPbvdHm6xkz5a-X-69" style="edgeStyle=orthogonalEdgeStyle;rounded=0;orthogonalLoop=1;jettySize=auto;html=1;exitX=0.5;exitY=1;exitDx=0;exitDy=0;entryX=0;entryY=0.5;entryDx=0;entryDy=0;fontSize=25;" edge="1" parent="1" source="AcqyMiPbvdHm6xkz5a-X-10" target="AcqyMiPbvdHm6xkz5a-X-63">
          <mxGeometry relative="1" as="geometry" />
        </mxCell>
        <mxCell id="AcqyMiPbvdHm6xkz5a-X-95" value="&amp;lt;" style="edgeLabel;html=1;align=center;verticalAlign=middle;resizable=0;points=[];fontSize=25;" vertex="1" connectable="0" parent="AcqyMiPbvdHm6xkz5a-X-69">
          <mxGeometry x="0.331" y="4" relative="1" as="geometry">
            <mxPoint as="offset" />
          </mxGeometry>
        </mxCell>
        <mxCell id="AcqyMiPbvdHm6xkz5a-X-10" value="15" style="ellipse;whiteSpace=wrap;html=1;aspect=fixed;fontSize=25;" vertex="1" parent="1">
          <mxGeometry x="440" y="1602" width="80" height="80" as="geometry" />
        </mxCell>
        <mxCell id="AcqyMiPbvdHm6xkz5a-X-70" style="edgeStyle=orthogonalEdgeStyle;rounded=0;orthogonalLoop=1;jettySize=auto;html=1;exitX=1;exitY=0.5;exitDx=0;exitDy=0;entryX=0;entryY=0.5;entryDx=0;entryDy=0;fontSize=25;" edge="1" parent="1" source="AcqyMiPbvdHm6xkz5a-X-11" target="AcqyMiPbvdHm6xkz5a-X-64">
          <mxGeometry relative="1" as="geometry" />
        </mxCell>
        <mxCell id="AcqyMiPbvdHm6xkz5a-X-92" value="=" style="edgeLabel;html=1;align=center;verticalAlign=middle;resizable=0;points=[];fontSize=25;" vertex="1" connectable="0" parent="AcqyMiPbvdHm6xkz5a-X-70">
          <mxGeometry x="-0.1708" y="-1" relative="1" as="geometry">
            <mxPoint as="offset" />
          </mxGeometry>
        </mxCell>
        <mxCell id="AcqyMiPbvdHm6xkz5a-X-11" value="17" style="ellipse;whiteSpace=wrap;html=1;aspect=fixed;fontSize=25;" vertex="1" parent="1">
          <mxGeometry x="440" y="1812" width="80" height="80" as="geometry" />
        </mxCell>
        <mxCell id="AcqyMiPbvdHm6xkz5a-X-71" style="edgeStyle=orthogonalEdgeStyle;rounded=0;orthogonalLoop=1;jettySize=auto;html=1;exitX=1;exitY=0.5;exitDx=0;exitDy=0;fontSize=25;" edge="1" parent="1" source="AcqyMiPbvdHm6xkz5a-X-12" target="AcqyMiPbvdHm6xkz5a-X-66">
          <mxGeometry relative="1" as="geometry" />
        </mxCell>
        <mxCell id="AcqyMiPbvdHm6xkz5a-X-90" value="=" style="edgeLabel;html=1;align=center;verticalAlign=middle;resizable=0;points=[];fontSize=25;" vertex="1" connectable="0" parent="AcqyMiPbvdHm6xkz5a-X-71">
          <mxGeometry x="-0.3732" y="3" relative="1" as="geometry">
            <mxPoint as="offset" />
          </mxGeometry>
        </mxCell>
        <mxCell id="AcqyMiPbvdHm6xkz5a-X-12" value="19" style="ellipse;whiteSpace=wrap;html=1;aspect=fixed;fontSize=25;" vertex="1" parent="1">
          <mxGeometry x="440" y="2012" width="80" height="80" as="geometry" />
        </mxCell>
        <mxCell id="AcqyMiPbvdHm6xkz5a-X-72" style="edgeStyle=orthogonalEdgeStyle;rounded=0;orthogonalLoop=1;jettySize=auto;html=1;exitX=1;exitY=0.5;exitDx=0;exitDy=0;entryX=0;entryY=0.5;entryDx=0;entryDy=0;fontSize=25;" edge="1" parent="1" source="AcqyMiPbvdHm6xkz5a-X-13" target="AcqyMiPbvdHm6xkz5a-X-67">
          <mxGeometry relative="1" as="geometry">
            <Array as="points">
              <mxPoint x="620" y="2277" />
              <mxPoint x="620" y="2277" />
            </Array>
          </mxGeometry>
        </mxCell>
        <mxCell id="AcqyMiPbvdHm6xkz5a-X-87" value="=" style="edgeLabel;html=1;align=center;verticalAlign=middle;resizable=0;points=[];fontSize=25;" vertex="1" connectable="0" parent="AcqyMiPbvdHm6xkz5a-X-72">
          <mxGeometry x="-0.3069" y="1" relative="1" as="geometry">
            <mxPoint as="offset" />
          </mxGeometry>
        </mxCell>
        <mxCell id="AcqyMiPbvdHm6xkz5a-X-75" style="edgeStyle=orthogonalEdgeStyle;rounded=0;orthogonalLoop=1;jettySize=auto;html=1;exitX=0.5;exitY=1;exitDx=0;exitDy=0;entryX=0;entryY=0.5;entryDx=0;entryDy=0;fontSize=25;" edge="1" parent="1" source="AcqyMiPbvdHm6xkz5a-X-13" target="AcqyMiPbvdHm6xkz5a-X-74">
          <mxGeometry relative="1" as="geometry" />
        </mxCell>
        <mxCell id="AcqyMiPbvdHm6xkz5a-X-88" value="|" style="edgeLabel;html=1;align=center;verticalAlign=middle;resizable=0;points=[];fontSize=25;" vertex="1" connectable="0" parent="AcqyMiPbvdHm6xkz5a-X-75">
          <mxGeometry x="0.1902" y="-2" relative="1" as="geometry">
            <mxPoint as="offset" />
          </mxGeometry>
        </mxCell>
        <mxCell id="AcqyMiPbvdHm6xkz5a-X-13" value="21" style="ellipse;whiteSpace=wrap;html=1;aspect=fixed;fontSize=25;" vertex="1" parent="1">
          <mxGeometry x="440" y="2237" width="80" height="80" as="geometry" />
        </mxCell>
        <mxCell id="AcqyMiPbvdHm6xkz5a-X-78" style="edgeStyle=orthogonalEdgeStyle;rounded=0;orthogonalLoop=1;jettySize=auto;html=1;exitX=1;exitY=0.5;exitDx=0;exitDy=0;entryX=0;entryY=0.5;entryDx=0;entryDy=0;fontSize=25;" edge="1" parent="1" source="AcqyMiPbvdHm6xkz5a-X-14" target="AcqyMiPbvdHm6xkz5a-X-76">
          <mxGeometry relative="1" as="geometry">
            <Array as="points">
              <mxPoint x="630" y="2527" />
              <mxPoint x="630" y="2527" />
            </Array>
          </mxGeometry>
        </mxCell>
        <mxCell id="AcqyMiPbvdHm6xkz5a-X-84" value="&amp;amp;" style="edgeLabel;html=1;align=center;verticalAlign=middle;resizable=0;points=[];fontSize=25;" vertex="1" connectable="0" parent="AcqyMiPbvdHm6xkz5a-X-78">
          <mxGeometry x="-0.2116" y="2" relative="1" as="geometry">
            <mxPoint as="offset" />
          </mxGeometry>
        </mxCell>
        <mxCell id="AcqyMiPbvdHm6xkz5a-X-79" style="edgeStyle=orthogonalEdgeStyle;rounded=0;orthogonalLoop=1;jettySize=auto;html=1;exitX=0.5;exitY=1;exitDx=0;exitDy=0;entryX=0;entryY=0.5;entryDx=0;entryDy=0;fontSize=25;" edge="1" parent="1" source="AcqyMiPbvdHm6xkz5a-X-14" target="AcqyMiPbvdHm6xkz5a-X-77">
          <mxGeometry relative="1" as="geometry" />
        </mxCell>
        <mxCell id="AcqyMiPbvdHm6xkz5a-X-85" value="=" style="edgeLabel;html=1;align=center;verticalAlign=middle;resizable=0;points=[];fontSize=25;" vertex="1" connectable="0" parent="AcqyMiPbvdHm6xkz5a-X-79">
          <mxGeometry x="0.4249" y="5" relative="1" as="geometry">
            <mxPoint as="offset" />
          </mxGeometry>
        </mxCell>
        <mxCell id="AcqyMiPbvdHm6xkz5a-X-14" value="23" style="ellipse;whiteSpace=wrap;html=1;aspect=fixed;fontSize=25;" vertex="1" parent="1">
          <mxGeometry x="440" y="2487" width="80" height="80" as="geometry" />
        </mxCell>
        <mxCell id="AcqyMiPbvdHm6xkz5a-X-16" value="26" style="ellipse;whiteSpace=wrap;html=1;aspect=fixed;fontSize=25;" vertex="1" parent="1">
          <mxGeometry x="440" y="2765" width="80" height="80" as="geometry" />
        </mxCell>
        <mxCell id="AcqyMiPbvdHm6xkz5a-X-17" value="27" style="ellipse;whiteSpace=wrap;html=1;aspect=fixed;fontSize=25;" vertex="1" parent="1">
          <mxGeometry x="440" y="2925" width="80" height="80" as="geometry" />
        </mxCell>
        <mxCell id="AcqyMiPbvdHm6xkz5a-X-18" value="1015" style="ellipse;whiteSpace=wrap;html=1;aspect=fixed;fontSize=25;" vertex="1" parent="1">
          <mxGeometry x="440" y="3095" width="80" height="80" as="geometry" />
        </mxCell>
        <mxCell id="AcqyMiPbvdHm6xkz5a-X-34" value="" style="shape=flexArrow;endArrow=classic;html=1;rounded=0;fontSize=25;entryX=0;entryY=0.5;entryDx=0;entryDy=0;" edge="1" parent="1" target="AcqyMiPbvdHm6xkz5a-X-1">
          <mxGeometry width="50" height="50" relative="1" as="geometry">
            <mxPoint x="20" y="260" as="sourcePoint" />
            <mxPoint x="50" y="250" as="targetPoint" />
          </mxGeometry>
        </mxCell>
        <mxCell id="AcqyMiPbvdHm6xkz5a-X-38" style="edgeStyle=orthogonalEdgeStyle;rounded=0;orthogonalLoop=1;jettySize=auto;html=1;exitX=1;exitY=0.5;exitDx=0;exitDy=0;fontSize=25;" edge="1" parent="1" source="AcqyMiPbvdHm6xkz5a-X-35" target="AcqyMiPbvdHm6xkz5a-X-37">
          <mxGeometry relative="1" as="geometry" />
        </mxCell>
        <mxCell id="AcqyMiPbvdHm6xkz5a-X-99" value="0-9" style="edgeLabel;html=1;align=center;verticalAlign=middle;resizable=0;points=[];fontSize=25;" vertex="1" connectable="0" parent="AcqyMiPbvdHm6xkz5a-X-38">
          <mxGeometry x="-0.1942" y="-1" relative="1" as="geometry">
            <mxPoint as="offset" />
          </mxGeometry>
        </mxCell>
        <mxCell id="AcqyMiPbvdHm6xkz5a-X-35" value="3" style="ellipse;whiteSpace=wrap;html=1;aspect=fixed;fontSize=25;" vertex="1" parent="1">
          <mxGeometry x="710" y="370" width="80" height="80" as="geometry" />
        </mxCell>
        <mxCell id="AcqyMiPbvdHm6xkz5a-X-37" value="25" style="ellipse;whiteSpace=wrap;html=1;aspect=fixed;fontSize=25;" vertex="1" parent="1">
          <mxGeometry x="960" y="370" width="80" height="80" as="geometry" />
        </mxCell>
        <mxCell id="AcqyMiPbvdHm6xkz5a-X-43" style="edgeStyle=orthogonalEdgeStyle;rounded=0;orthogonalLoop=1;jettySize=auto;html=1;exitX=1;exitY=0.5;exitDx=0;exitDy=0;entryX=0;entryY=0.5;entryDx=0;entryDy=0;fontSize=25;" edge="1" parent="1" source="AcqyMiPbvdHm6xkz5a-X-39" target="AcqyMiPbvdHm6xkz5a-X-40">
          <mxGeometry relative="1" as="geometry" />
        </mxCell>
        <mxCell id="AcqyMiPbvdHm6xkz5a-X-104" value="*" style="edgeLabel;html=1;align=center;verticalAlign=middle;resizable=0;points=[];fontSize=25;" vertex="1" connectable="0" parent="AcqyMiPbvdHm6xkz5a-X-43">
          <mxGeometry x="0.249" y="5" relative="1" as="geometry">
            <mxPoint as="offset" />
          </mxGeometry>
        </mxCell>
        <mxCell id="AcqyMiPbvdHm6xkz5a-X-39" value="6" style="ellipse;whiteSpace=wrap;html=1;aspect=fixed;fontSize=25;" vertex="1" parent="1">
          <mxGeometry x="710" y="660" width="80" height="80" as="geometry" />
        </mxCell>
        <mxCell id="AcqyMiPbvdHm6xkz5a-X-44" style="edgeStyle=orthogonalEdgeStyle;rounded=0;orthogonalLoop=1;jettySize=auto;html=1;exitX=1;exitY=0.5;exitDx=0;exitDy=0;fontSize=25;" edge="1" parent="1" source="AcqyMiPbvdHm6xkz5a-X-40" target="AcqyMiPbvdHm6xkz5a-X-41">
          <mxGeometry relative="1" as="geometry" />
        </mxCell>
        <mxCell id="AcqyMiPbvdHm6xkz5a-X-105" value="/" style="edgeLabel;html=1;align=center;verticalAlign=middle;resizable=0;points=[];fontSize=25;" vertex="1" connectable="0" parent="AcqyMiPbvdHm6xkz5a-X-44">
          <mxGeometry x="0.1984" y="2" relative="1" as="geometry">
            <mxPoint as="offset" />
          </mxGeometry>
        </mxCell>
        <mxCell id="AcqyMiPbvdHm6xkz5a-X-121" style="edgeStyle=orthogonalEdgeStyle;curved=1;rounded=0;orthogonalLoop=1;jettySize=auto;html=1;exitX=0.5;exitY=0;exitDx=0;exitDy=0;entryX=0.5;entryY=0;entryDx=0;entryDy=0;fontSize=25;" edge="1" parent="1" source="AcqyMiPbvdHm6xkz5a-X-40" target="AcqyMiPbvdHm6xkz5a-X-39">
          <mxGeometry relative="1" as="geometry">
            <Array as="points">
              <mxPoint x="990" y="590" />
              <mxPoint x="750" y="590" />
            </Array>
          </mxGeometry>
        </mxCell>
        <mxCell id="AcqyMiPbvdHm6xkz5a-X-122" value="其他" style="edgeLabel;html=1;align=center;verticalAlign=middle;resizable=0;points=[];fontSize=25;" vertex="1" connectable="0" parent="AcqyMiPbvdHm6xkz5a-X-121">
          <mxGeometry x="-0.2327" y="8" relative="1" as="geometry">
            <mxPoint as="offset" />
          </mxGeometry>
        </mxCell>
        <mxCell id="AcqyMiPbvdHm6xkz5a-X-40" value="9" style="ellipse;whiteSpace=wrap;html=1;aspect=fixed;fontSize=25;" vertex="1" parent="1">
          <mxGeometry x="950" y="660" width="80" height="80" as="geometry" />
        </mxCell>
        <mxCell id="AcqyMiPbvdHm6xkz5a-X-41" value="10" style="ellipse;whiteSpace=wrap;html=1;aspect=fixed;fontSize=25;" vertex="1" parent="1">
          <mxGeometry x="1161" y="660" width="80" height="80" as="geometry" />
        </mxCell>
        <mxCell id="AcqyMiPbvdHm6xkz5a-X-50" style="edgeStyle=orthogonalEdgeStyle;rounded=0;orthogonalLoop=1;jettySize=auto;html=1;exitX=1;exitY=0.5;exitDx=0;exitDy=0;fontSize=25;" edge="1" parent="1" source="AcqyMiPbvdHm6xkz5a-X-45" target="AcqyMiPbvdHm6xkz5a-X-49">
          <mxGeometry relative="1" as="geometry">
            <Array as="points">
              <mxPoint x="870" y="880" />
              <mxPoint x="870" y="880" />
            </Array>
          </mxGeometry>
        </mxCell>
        <mxCell id="AcqyMiPbvdHm6xkz5a-X-107" value="\n" style="edgeLabel;html=1;align=center;verticalAlign=middle;resizable=0;points=[];fontSize=25;" vertex="1" connectable="0" parent="AcqyMiPbvdHm6xkz5a-X-50">
          <mxGeometry x="-0.3403" y="2" relative="1" as="geometry">
            <mxPoint as="offset" />
          </mxGeometry>
        </mxCell>
        <mxCell id="AcqyMiPbvdHm6xkz5a-X-45" value="7" style="ellipse;whiteSpace=wrap;html=1;aspect=fixed;fontSize=25;" vertex="1" parent="1">
          <mxGeometry x="710" y="840" width="80" height="80" as="geometry" />
        </mxCell>
        <mxCell id="AcqyMiPbvdHm6xkz5a-X-47" value="0" style="ellipse;whiteSpace=wrap;html=1;aspect=fixed;fontSize=25;" vertex="1" parent="1">
          <mxGeometry x="710" y="1050" width="80" height="80" as="geometry" />
        </mxCell>
        <mxCell id="AcqyMiPbvdHm6xkz5a-X-49" value="0" style="ellipse;whiteSpace=wrap;html=1;aspect=fixed;fontSize=25;" vertex="1" parent="1">
          <mxGeometry x="950" y="840" width="80" height="80" as="geometry" />
        </mxCell>
        <mxCell id="AcqyMiPbvdHm6xkz5a-X-51" value="状态大于 1000&amp;nbsp; 表示报错，&lt;div style=&quot;text-align: justify;&quot;&gt;&lt;/div&gt;" style="rounded=0;whiteSpace=wrap;html=1;fontSize=25;align=left;" vertex="1" parent="1">
          <mxGeometry x="160" y="10" width="750" height="80" as="geometry" />
        </mxCell>
        <mxCell id="AcqyMiPbvdHm6xkz5a-X-56" value="14" style="ellipse;whiteSpace=wrap;html=1;aspect=fixed;fontSize=25;" vertex="1" parent="1">
          <mxGeometry x="720" y="1412" width="80" height="80" as="geometry" />
        </mxCell>
        <mxCell id="AcqyMiPbvdHm6xkz5a-X-58" value="14" style="ellipse;whiteSpace=wrap;html=1;aspect=fixed;fontSize=25;" vertex="1" parent="1">
          <mxGeometry x="720" y="1510" width="80" height="80" as="geometry" />
        </mxCell>
        <mxCell id="AcqyMiPbvdHm6xkz5a-X-62" value="16" style="ellipse;whiteSpace=wrap;html=1;aspect=fixed;fontSize=25;" vertex="1" parent="1">
          <mxGeometry x="720" y="1602" width="80" height="80" as="geometry" />
        </mxCell>
        <mxCell id="AcqyMiPbvdHm6xkz5a-X-63" value="29" style="ellipse;whiteSpace=wrap;html=1;aspect=fixed;fontSize=25;" vertex="1" parent="1">
          <mxGeometry x="720" y="1714" width="80" height="80" as="geometry" />
        </mxCell>
        <mxCell id="AcqyMiPbvdHm6xkz5a-X-64" value="18" style="ellipse;whiteSpace=wrap;html=1;aspect=fixed;fontSize=25;" vertex="1" parent="1">
          <mxGeometry x="730" y="1812" width="80" height="80" as="geometry" />
        </mxCell>
        <mxCell id="AcqyMiPbvdHm6xkz5a-X-66" value="20" style="ellipse;whiteSpace=wrap;html=1;aspect=fixed;fontSize=25;" vertex="1" parent="1">
          <mxGeometry x="734" y="2012" width="80" height="80" as="geometry" />
        </mxCell>
        <mxCell id="AcqyMiPbvdHm6xkz5a-X-67" value="30" style="ellipse;whiteSpace=wrap;html=1;aspect=fixed;fontSize=25;" vertex="1" parent="1">
          <mxGeometry x="730" y="2237" width="80" height="80" as="geometry" />
        </mxCell>
        <mxCell id="AcqyMiPbvdHm6xkz5a-X-74" value="22" style="ellipse;whiteSpace=wrap;html=1;aspect=fixed;fontSize=25;" vertex="1" parent="1">
          <mxGeometry x="730" y="2380" width="80" height="80" as="geometry" />
        </mxCell>
        <mxCell id="AcqyMiPbvdHm6xkz5a-X-76" value="24" style="ellipse;whiteSpace=wrap;html=1;aspect=fixed;fontSize=25;" vertex="1" parent="1">
          <mxGeometry x="730" y="2487" width="80" height="80" as="geometry" />
        </mxCell>
        <mxCell id="AcqyMiPbvdHm6xkz5a-X-77" value="31" style="ellipse;whiteSpace=wrap;html=1;aspect=fixed;fontSize=25;" vertex="1" parent="1">
          <mxGeometry x="730" y="2630" width="80" height="80" as="geometry" />
        </mxCell>
        <mxCell id="AcqyMiPbvdHm6xkz5a-X-101" value="&amp;nbsp;11个单独字符包括&amp;nbsp; &amp;nbsp; +&amp;nbsp; &amp;nbsp;，&amp;nbsp; &amp;nbsp;{&amp;nbsp; }&amp;nbsp; &amp;nbsp;[&amp;nbsp; &amp;nbsp; &amp;nbsp;]&amp;nbsp; &amp;nbsp;(&amp;nbsp; &amp;nbsp; &amp;nbsp;)&amp;nbsp; &amp;nbsp;-&amp;nbsp; &amp;nbsp; &amp;nbsp;%&amp;nbsp; &amp;nbsp; &amp;nbsp;;&lt;br&gt;由于这些符号在词法分析过程中没有和其他字符搭配，所以可以单独存在" style="rounded=0;whiteSpace=wrap;html=1;fontSize=25;" vertex="1" parent="1">
          <mxGeometry x="530" y="460" width="850" height="100" as="geometry" />
        </mxCell>
        <mxCell id="AcqyMiPbvdHm6xkz5a-X-110" style="edgeStyle=orthogonalEdgeStyle;curved=1;rounded=0;orthogonalLoop=1;jettySize=auto;html=1;exitX=1;exitY=0.5;exitDx=0;exitDy=0;entryX=0.379;entryY=-0.015;entryDx=0;entryDy=0;entryPerimeter=0;fontSize=25;" edge="1" parent="1" source="AcqyMiPbvdHm6xkz5a-X-1" target="AcqyMiPbvdHm6xkz5a-X-1">
          <mxGeometry relative="1" as="geometry">
            <Array as="points">
              <mxPoint x="240" y="260" />
              <mxPoint x="240" y="180" />
              <mxPoint x="170" y="180" />
            </Array>
          </mxGeometry>
        </mxCell>
        <mxCell id="AcqyMiPbvdHm6xkz5a-X-111" value="\r,\t" style="edgeLabel;html=1;align=center;verticalAlign=middle;resizable=0;points=[];fontSize=25;" vertex="1" connectable="0" parent="AcqyMiPbvdHm6xkz5a-X-110">
          <mxGeometry x="-0.1197" y="7" relative="1" as="geometry">
            <mxPoint as="offset" />
          </mxGeometry>
        </mxCell>
        <mxCell id="AcqyMiPbvdHm6xkz5a-X-112" style="edgeStyle=orthogonalEdgeStyle;curved=1;rounded=0;orthogonalLoop=1;jettySize=auto;html=1;exitX=1;exitY=0.5;exitDx=0;exitDy=0;entryX=0.5;entryY=0;entryDx=0;entryDy=0;fontSize=25;" edge="1" parent="1" source="AcqyMiPbvdHm6xkz5a-X-2" target="AcqyMiPbvdHm6xkz5a-X-2">
          <mxGeometry relative="1" as="geometry">
            <Array as="points">
              <mxPoint x="540" y="260" />
              <mxPoint x="540" y="180" />
              <mxPoint x="480" y="180" />
            </Array>
          </mxGeometry>
        </mxCell>
        <mxCell id="AcqyMiPbvdHm6xkz5a-X-113" value="a-z,$,_,0-9" style="edgeLabel;html=1;align=center;verticalAlign=middle;resizable=0;points=[];fontSize=25;" vertex="1" connectable="0" parent="AcqyMiPbvdHm6xkz5a-X-112">
          <mxGeometry x="-0.1536" y="6" relative="1" as="geometry">
            <mxPoint x="26" y="-16" as="offset" />
          </mxGeometry>
        </mxCell>
        <mxCell id="AcqyMiPbvdHm6xkz5a-X-114" style="edgeStyle=orthogonalEdgeStyle;curved=1;rounded=0;orthogonalLoop=1;jettySize=auto;html=1;exitX=1;exitY=0.5;exitDx=0;exitDy=0;entryX=0.5;entryY=0;entryDx=0;entryDy=0;fontSize=25;" edge="1" parent="1" source="AcqyMiPbvdHm6xkz5a-X-3" target="AcqyMiPbvdHm6xkz5a-X-3">
          <mxGeometry relative="1" as="geometry">
            <Array as="points">
              <mxPoint x="540" y="410" />
              <mxPoint x="540" y="330" />
              <mxPoint x="480" y="330" />
            </Array>
          </mxGeometry>
        </mxCell>
        <mxCell id="AcqyMiPbvdHm6xkz5a-X-115" value="0-9" style="edgeLabel;html=1;align=center;verticalAlign=middle;resizable=0;points=[];fontSize=25;" vertex="1" connectable="0" parent="AcqyMiPbvdHm6xkz5a-X-114">
          <mxGeometry x="-0.1822" y="7" relative="1" as="geometry">
            <mxPoint as="offset" />
          </mxGeometry>
        </mxCell>
        <mxCell id="AcqyMiPbvdHm6xkz5a-X-116" style="edgeStyle=orthogonalEdgeStyle;curved=1;rounded=0;orthogonalLoop=1;jettySize=auto;html=1;exitX=1;exitY=0.5;exitDx=0;exitDy=0;entryX=0.5;entryY=0;entryDx=0;entryDy=0;fontSize=25;" edge="1" parent="1" source="AcqyMiPbvdHm6xkz5a-X-37" target="AcqyMiPbvdHm6xkz5a-X-37">
          <mxGeometry relative="1" as="geometry">
            <Array as="points">
              <mxPoint x="1060" y="410" />
              <mxPoint x="1060" y="310" />
              <mxPoint x="1000" y="310" />
            </Array>
          </mxGeometry>
        </mxCell>
        <mxCell id="AcqyMiPbvdHm6xkz5a-X-117" value="0-9" style="edgeLabel;html=1;align=center;verticalAlign=middle;resizable=0;points=[];fontSize=25;" vertex="1" connectable="0" parent="AcqyMiPbvdHm6xkz5a-X-116">
          <mxGeometry x="-0.1637" y="10" relative="1" as="geometry">
            <mxPoint as="offset" />
          </mxGeometry>
        </mxCell>
        <mxCell id="AcqyMiPbvdHm6xkz5a-X-118" style="edgeStyle=orthogonalEdgeStyle;curved=1;rounded=0;orthogonalLoop=1;jettySize=auto;html=1;exitX=1;exitY=0.5;exitDx=0;exitDy=0;entryX=0.5;entryY=0;entryDx=0;entryDy=0;fontSize=25;" edge="1" parent="1" source="AcqyMiPbvdHm6xkz5a-X-39" target="AcqyMiPbvdHm6xkz5a-X-39">
          <mxGeometry relative="1" as="geometry">
            <Array as="points">
              <mxPoint x="810" y="700" />
              <mxPoint x="810" y="590" />
              <mxPoint x="724" y="590" />
              <mxPoint x="724" y="660" />
            </Array>
          </mxGeometry>
        </mxCell>
        <mxCell id="AcqyMiPbvdHm6xkz5a-X-119" value="其他" style="edgeLabel;html=1;align=center;verticalAlign=middle;resizable=0;points=[];fontSize=25;" vertex="1" connectable="0" parent="AcqyMiPbvdHm6xkz5a-X-118">
          <mxGeometry x="0.087" y="-2" relative="1" as="geometry">
            <mxPoint x="-30" y="2" as="offset" />
          </mxGeometry>
        </mxCell>
        <mxCell id="AcqyMiPbvdHm6xkz5a-X-123" style="edgeStyle=orthogonalEdgeStyle;curved=1;rounded=0;orthogonalLoop=1;jettySize=auto;html=1;exitX=1;exitY=0.5;exitDx=0;exitDy=0;entryX=0.5;entryY=0;entryDx=0;entryDy=0;fontSize=25;" edge="1" parent="1" source="AcqyMiPbvdHm6xkz5a-X-45" target="AcqyMiPbvdHm6xkz5a-X-45">
          <mxGeometry relative="1" as="geometry">
            <Array as="points">
              <mxPoint x="810" y="880" />
              <mxPoint x="810" y="790" />
              <mxPoint x="750" y="790" />
            </Array>
          </mxGeometry>
        </mxCell>
        <mxCell id="AcqyMiPbvdHm6xkz5a-X-124" value="其他" style="edgeLabel;html=1;align=center;verticalAlign=middle;resizable=0;points=[];fontSize=25;" vertex="1" connectable="0" parent="AcqyMiPbvdHm6xkz5a-X-123">
          <mxGeometry x="-0.1048" y="4" relative="1" as="geometry">
            <mxPoint as="offset" />
          </mxGeometry>
        </mxCell>
      </root>
    </mxGraphModel>
  </diagram>
</mxfile>
